<svg xmlns="http://www.w3.org/2000/svg" viewBox="0 0 27 24.469">
    <path d="M25.766,5.49a4.59,4.59,0,0,1,1.229,3.465V19.628a4.711,4.711,0,0,1-1.4,3.433,4.94,4.94,0,0,1-3.454,1.408H4.853A4.829,4.829,0,0,1,1.41,23.034,5.16,5.16,0,0,1,0,19.417V8.954A5.073,5.073,0,0,1,1.41,5.49,5.014,5.014,0,0,1,4.853,4.113H6.4L5.065,2.752A1.555,1.555,0,0,1,4.61,1.6,1.554,1.554,0,0,1,6.217,0,1.575,1.575,0,0,1,7.372.454l3.865,3.66h4.641L19.807.454A1.663,1.663,0,0,1,20.988,0a1.575,1.575,0,0,1,1.155.454A1.565,1.565,0,0,1,22.6,1.6a1.564,1.564,0,0,1-.454,1.149L20.809,4.113h1.545A4.906,4.906,0,0,1,25.766,5.49ZM23.72,9.165a1.645,1.645,0,0,0-.564-1.239,1.687,1.687,0,0,0-1.2-.517H5.065a1.8,1.8,0,0,0-1.243.517,1.774,1.774,0,0,0-.516,1.239V19.417a1.684,1.684,0,0,0,.516,1.239,1.7,1.7,0,0,0,1.243.517H21.958a1.649,1.649,0,0,0,1.229-.517,1.837,1.837,0,0,0,.533-1.239ZM9.782,11.417a1.789,1.789,0,0,1,.533,1.223V14.4A1.811,1.811,0,0,1,9.8,15.62a1.669,1.669,0,0,1-1.245.5,1.661,1.661,0,0,1-1.245-.5A1.811,1.811,0,0,1,6.792,14.4V12.64a1.789,1.789,0,0,1,.533-1.223,1.7,1.7,0,0,1,1.229-.527,1.786,1.786,0,0,1,1.229.527Zm10.1,0a1.789,1.789,0,0,1,.533,1.223V14.4A1.811,1.811,0,0,1,19.9,15.62a1.8,1.8,0,0,1-2.489,0A1.6,1.6,0,0,1,16.9,14.4V12.64a1.761,1.761,0,0,1,.527-1.223,1.7,1.7,0,0,1,2.457,0Z" fill="#00cbff"/>
</svg>