<svg xmlns="http://www.w3.org/2000/svg" viewBox="0 0 23.834 20.914">
    <g transform="translate(-1 -2.85)">
        <path d="M20.061,24.005H5.553A4.5,4.5,0,0,1,1,19.565V7.946A4.509,4.509,0,0,1,5.553,3.5h8.165V5.384H5.553A2.619,2.619,0,0,0,2.884,7.946V19.565a2.619,2.619,0,0,0,2.669,2.562H20.061a2.619,2.619,0,0,0,2.669-2.556V13.988h1.884v5.59a4.5,4.5,0,0,1-4.553,4.428Z" transform="translate(0 -0.242)" fill="#00cbff"/>
        <path d="M13.966,15.907,12.22,15.2l.352-.873a10.45,10.45,0,0,1,9.3-6.356h2.512L20.542,4.2l1.313-1.35,7.153,7H21.873a8.59,8.59,0,0,0-7.537,5.213Z" transform="translate(-4.173)" fill="#00cbff"/>
    </g>
</svg>
