<svg xmlns="http://www.w3.org/2000/svg" viewBox="0 0 12 13">
    <g transform="translate(0 .28)" fill="#00a1d6">
        <path d="M1.4 12C.6 12 0 11.4 0 10.6V4.3c0-.8.6-1.4 1.4-1.4s1.4.6 1.4 1.4v6.3c.1.8-.6 1.4-1.4 1.4zm0-7.9c-.1 0-.2.1-.2.2v6.3c0 .3.5.3.5 0V4.3c0-.1-.1-.2-.3-.2zM6 12c-.8 0-1.4-.6-1.4-1.4V1.4C4.6.6 5.2 0 6 0s1.4.6 1.4 1.4v9.1c0 .9-.6 1.5-1.4 1.5zM6 1.2c-.1 0-.2.1-.2.2v9.1c0 .3.5.3.5 0V1.4c-.1-.1-.2-.2-.3-.2zM10.6 12c-.8 0-1.4-.6-1.4-1.4V7.7c0-.8.6-1.4 1.4-1.4.8 0 1.4.6 1.4 1.4v2.9c0 .8-.6 1.4-1.4 1.4zm0-4.5c-.1 0-.2.1-.2.2v2.9c0 .3.5.3.5 0V7.7c-.1-.1-.2-.2-.3-.2z"/>
    </g>
</svg>