<svg xmlns="http://www.w3.org/2000/svg" viewBox="0 0 15 15">
    <path d="M6.096 7.404a.6.6 0 1 1-.849.849 3.1 3.1 0 0 1 0-4.384L7.37 1.747a3.1 3.1 0 0 1 4.384 4.384l-1.85 1.85a.6.6 0 0 1-.849-.848l1.85-1.85a1.9 1.9 0 1 0-2.687-2.687L6.096 4.717a1.9 1.9 0 0 0 0 2.687zm.808.192a.6.6 0 1 1 .849-.849 3.1 3.1 0 0 1 0 4.384L5.63 13.253a3.1 3.1 0 0 1-4.384-4.384l1.85-1.85a.6.6 0 1 1 .849.848l-1.85 1.85a1.9 1.9 0 0 0 2.687 2.687l2.121-2.121a1.9 1.9 0 0 0 0-2.687z" fill="#00A1D6" fill-rule="nonzero"/>
</svg>