<svg xmlns="http://www.w3.org/2000/svg" viewBox="0 0 17 16">
    <g fill="#00a1d6">
        <path d="M14.6 7.9H2.4c-1 0-1.8-.8-1.8-1.8s.8-1.8 1.8-1.8h12.2c1 0 1.8.8 1.8 1.8s-.8 1.8-1.8 1.8zM2.4 5.3c-.4 0-.8.4-.8.8s.4.8.8.8h12.2c.4 0 .8-.4.8-.8s-.4-.8-.8-.8H2.4z"/>
        <path d="M13.5 15.7h-10c-.8 0-1.5-.7-1.5-1.5V7.1h13v7.2c0 .7-.7 1.4-1.5 1.4zM3 8.1v6.2c0 .2.2.4.4.4h10.1c.2 0 .4-.2.4-.4V8.1H3z"/>
        <path d="M8.1 4.2h1v11.5h-1z"></path>
        <path d="M8.9 5.2H6.3C5 5.2 3.8 4.1 3.8 2.7S5 .2 6.3.2s2.5 1.1 2.5 2.5v2.5zm-2.6-4c-.8 0-1.5.7-1.5 1.5s.7 1.5 1.5 1.5h1.5V2.7c.1-.9-.6-1.5-1.5-1.5z"/>
        <path d="M10.6 5.2H8.1V2.7C8.1 1.3 9.2.2 10.6.2s2.5 1.1 2.5 2.5-1.1 2.5-2.5 2.5zm-1.5-1h1.5c.8 0 1.5-.7 1.5-1.5s-.7-1.5-1.5-1.5-1.5.6-1.5 1.5v1.5z"/>
    </g>
</svg>