<svg xmlns="http://www.w3.org/2000/svg" viewBox="0 0 18 17">
    <path fill-rule="evenodd" clip-rule="evenodd" d="M13.288 1.593a.633.633 0 00-.01-.277c-.118-.464-.588-.79-1.117-.75a.79.79 0 00-.29.076.717.717 0 00-.196.139c-.026.025-.048.053-.07.08L11.6.866l-.071.087-.141.176c-.187.235-.37.473-.545.715a17.734 17.734 0 00-.745 1.112l-.387-.004a81.837 81.837 0 00-2.125.01 13.925 13.925 0 00-.24-.379 20.775 20.775 0 00-1.055-1.454l-.14-.176L6.08.866 6.078.863a.714.714 0 00-.268-.22.789.789 0 00-.29-.077c-.513-.04-.995.273-1.116.75a.633.633 0 00.133.578l.004.006.068.089.138.178a22.07 22.07 0 00.716.868 63.81 63.81 0 00-1.494.093l-.41.032-.204.017-.116.013a1.918 1.918 0 00-.08.011l-.035.006A2.845 2.845 0 00.767 5.752a45.464 45.464 0 00-.195 3.286 40.2 40.2 0 00.065 3.294c.016.274.035.547.055.82l.034.411.017.205.003.026.003.029.006.058c.003.032.008.064.013.095a2.869 2.869 0 001.648 2.173c.287.13.595.214.907.243l.041.004.013.001.051.005.103.008.205.017.41.032a68.765 68.765 0 009.03.049c.272-.018.546-.036.819-.057l.41-.034.205-.018.117-.012.082-.013.034-.005a2.869 2.869 0 002.322-2.229l.013-.058.01-.058a2.936 2.936 0 00.03-.228c.112-1.091.187-2.188.211-3.288a34.846 34.846 0 00-.09-3.3c-.019-.273-.04-.547-.066-.82l-.04-.41-.02-.205-.006-.051-.007-.057a3.084 3.084 0 01-.004-.03c-.004-.029-.007-.057-.013-.085a2.874 2.874 0 00-1.644-2.14 2.826 2.826 0 00-.944-.244h-.011l-.052-.005-.102-.009-.205-.016-.41-.03a58.086 58.086 0 00-1.58-.09l.13-.15c.195-.23.384-.463.57-.7l.137-.177.068-.09.006-.007c.02-.027.042-.054.06-.084a.631.631 0 00.082-.215zm-2.625 3.648c.067-.404.433-.675.819-.605h.004c.388.074.647.462.58.869L11.8 7.113h1.43c.426 0 .77.361.77.806 0 .446-.344.807-.77.807h-1.697l-.32 1.935h1.556c.425 0 .77.362.77.807 0 .445-.345.806-.77.806h-1.822l-.287 1.735c-.067.404-.433.675-.819.605h-.004c-.388-.074-.647-.462-.58-.869l.244-1.47H7.624l-.287 1.734c-.067.404-.433.675-.819.605h-.004c-.388-.074-.647-.462-.58-.869l.243-1.47H4.77c-.425 0-.769-.362-.769-.807 0-.445.344-.807.77-.807h1.674l.32-1.935H5.23c-.425 0-.77-.361-.77-.807 0-.445.345-.806.77-.806h1.8l.309-1.872c.067-.404.433-.675.819-.605h.004c.388.074.647.462.58.869l-.266 1.608h1.877l.309-1.872zm-.896 5.42l.32-1.935H8.21l-.32 1.935h1.877z" fill="#008AC5"/>
</svg>