<svg xmlns="http://www.w3.org/2000/svg" viewBox="0 0 16.873 16.07">
    <path d="M13.288,1.593a.633.633,0,0,0-.01-.277,1.052,1.052,0,0,0-1.117-.75.79.79,0,0,0-.29.076.717.717,0,0,0-.2.139.871.871,0,0,0-.07.08L11.6.866l-.071.087-.141.176c-.187.235-.37.473-.545.715q-.393.542-.745,1.112l-.387,0q-1.063-.009-2.125.01-.117-.191-.24-.379-.5-.749-1.055-1.454L6.151.953,6.08.866l0,0A.714.714,0,0,0,5.81.643.789.789,0,0,0,5.52.566a1.052,1.052,0,0,0-1.116.75.633.633,0,0,0,.133.578l0,.006.068.089.138.178q.347.443.716.868-.748.038-1.494.093l-.41.032-.2.017-.116.013-.08.011-.035.006A2.845,2.845,0,0,0,.767,5.752Q.61,7.391.572,9.038t.065,3.294c.016.274.035.547.055.82l.034.411.017.2,0,.026,0,.029.006.058c0,.032.008.064.013.1a2.867,2.867,0,0,0,2.555,2.416l.041,0h.013l.051,0,.1.008.2.017.41.032a68.764,68.764,0,0,0,9.03.049c.272-.018.546-.036.819-.057l.41-.034.2-.018.117-.012.082-.013.034,0a2.869,2.869,0,0,0,2.322-2.229l.013-.058.01-.058q.019-.113.03-.228c.112-1.091.187-2.188.211-3.288s-.008-2.2-.09-3.3c-.019-.273-.04-.547-.066-.82l-.04-.41-.02-.2-.006-.051L17.2,5.665l0-.03c0-.029-.007-.057-.013-.085a2.874,2.874,0,0,0-1.644-2.14,2.826,2.826,0,0,0-.944-.244h-.011l-.052-.005-.1-.009-.2-.016-.41-.03q-.789-.056-1.58-.09l.13-.15c.195-.23.384-.463.57-.7l.137-.177.068-.09.006-.007c.02-.027.042-.054.06-.084a.631.631,0,0,0,.082-.215ZM10.663,5.241a.712.712,0,0,1,.819-.605h0a.751.751,0,0,1,.58.869L11.8,7.113h1.43a.807.807,0,0,1,0,1.613h-1.7l-.32,1.935h1.556a.807.807,0,0,1,0,1.613H10.947l-.287,1.735a.712.712,0,0,1-.819.6h0a.751.751,0,0,1-.58-.869l.244-1.47H7.624l-.287,1.734a.712.712,0,0,1-.819.605h0a.751.751,0,0,1-.58-.869l.243-1.47H4.77a.808.808,0,0,1,0-1.614H6.445l.32-1.935H5.23a.807.807,0,0,1,0-1.613h1.8l.309-1.872a.712.712,0,0,1,.819-.605h0a.751.751,0,0,1,.58.869L8.476,7.113h1.877l.309-1.872Zm-.9,5.42.32-1.935H8.21l-.32,1.935H9.767Z" transform="translate(-0.563 -0.563)" fill="#008ac5" fill-rule="evenodd"/>
</svg>
